<svg width="32" height="32" viewBox="0 0 32 32" fill="none" xmlns="http://www.w3.org/2000/svg">
<path d="M26.24 2.56H5.76C3.9936 2.56 2.56 3.9936 2.56 5.76V26.24C2.56 28.0064 3.9936 29.44 5.76 29.44H26.24C28.0064 29.44 29.44 28.0064 29.44 26.24V5.76C29.44 3.9936 28.0064 2.56 26.24 2.56ZM10.88 12.8V24.96H7.04V12.8H10.88ZM7.04 9.2608C7.04 8.3648 7.808 7.68 8.96 7.68C10.112 7.68 10.8352 8.3648 10.88 9.2608C10.88 10.1568 10.1632 10.88 8.96 10.88C7.808 10.88 7.04 10.1568 7.04 9.2608ZM24.96 24.96H21.12C21.12 24.96 21.12 19.0336 21.12 18.56C21.12 17.28 20.48 16 18.88 15.9744H18.8288C17.28 15.9744 16.64 17.2928 16.64 18.56C16.64 19.1424 16.64 24.96 16.64 24.96H12.8V12.8H16.64V14.4384C16.64 14.4384 17.8752 12.8 20.3584 12.8C22.8992 12.8 24.96 14.5472 24.96 18.0864V24.96Z" fill="black"/>
</svg>
