<svg width="32" height="32" viewBox="0 0 32 32" fill="none" xmlns="http://www.w3.org/2000/svg">
<g clip-path="url(#clip0_5_30)">
<path d="M32.04 6.67997C30.8575 7.20497 29.59 7.55747 28.2575 7.71747C29.6175 6.90247 30.6625 5.61247 31.1525 4.07747C29.8825 4.82997 28.47 5.37747 26.9725 5.67247C25.7725 4.39247 24.0625 3.59497 22.17 3.59497C18.535 3.59497 15.5875 6.53997 15.5875 10.175C15.5875 10.69 15.6475 11.1925 15.76 11.675C10.29 11.4 5.44249 8.77997 2.19499 4.79747C1.62749 5.77247 1.30499 6.90247 1.30499 8.10747C1.30499 10.39 2.46499 12.405 4.23249 13.5875C3.15249 13.5525 2.13749 13.255 1.24999 12.7625C1.24999 12.79 1.24999 12.8175 1.24999 12.845C1.24999 16.035 3.51999 18.6925 6.52749 19.3C5.97749 19.45 5.39499 19.53 4.79499 19.53C4.36999 19.53 3.95749 19.49 3.55499 19.41C4.39499 22.0225 6.82499 23.93 9.70249 23.9825C7.45249 25.7475 4.61499 26.7975 1.52999 26.7975C0.997494 26.7975 0.474994 26.7675 -0.0375061 26.705C2.87249 28.575 6.33249 29.6625 10.05 29.6625C22.155 29.6625 28.775 19.635 28.775 10.94C28.775 10.655 28.7675 10.3675 28.7575 10.0875C30.0425 9.15997 31.1575 7.99997 32.04 6.67997Z" fill="black"/>
</g>
<defs>
<clipPath id="clip0_5_30">
<rect width="32" height="32" fill="white"/>
</clipPath>
</defs>
</svg>
